<svg xmlns="http://www.w3.org/2000/svg" aria-hidden="true" style="position:absolute;width:0;height:0;overflow:hidden">
  <defs>
   <symbol id="icon-inst" viewBox="0 0 32 32">
<path fill="#000" style="fill: var(--color1, #000)" d="M0 16c0-8.837 7.163-16 16-16s16 7.163 16 16-7.163 16-16 16-16-7.163-16-16z"></path>
<path fill="#000" style="fill: var(--color1, #000)" d="M4.571 0h22.857c2.525 0 4.571 2.047 4.571 4.571v22.857c0 2.525-2.047 4.571-4.571 4.571h-22.857c-2.525 0-4.571-2.047-4.571-4.571v-22.857c0-2.525 2.047-4.571 4.571-4.571z"></path>
<path fill="#fff" style="fill: var(--color2, #fff)" d="M11.619 16c0-2.42 1.962-4.383 4.383-4.383s4.383 1.962 4.383 4.383v0c0 2.42-1.962 4.383-4.383 4.383s-4.383-1.962-4.383-4.383v0zM18.845 16c0-1.571-1.273-2.844-2.844-2.844s-2.844 1.273-2.844 2.844v0c0 1.571 1.273 2.844 2.844 2.844s2.844-1.273 2.844-2.844v0z"></path>
<path fill="#fff" style="fill: var(--color2, #fff)" d="M19.532 11.445c0-0.566 0.458-1.024 1.024-1.024s1.024 0.458 1.024 1.024v0c0 0.566-0.458 1.024-1.024 1.024s-1.024-0.458-1.024-1.024v0z"></path>
<path fill="#fff" style="fill: var(--color2, #fff)" d="M12.482 7.518c0.911-0.041 1.201-0.051 3.519-0.051h-0.003c2.319 0 2.608 0.009 3.518 0.051 0.909 0.042 1.529 0.186 2.073 0.397 0.592 0.226 1.096 0.56 1.511 0.983l0.001 0.001c0.423 0.416 0.758 0.92 0.975 1.483l0.010 0.029c0.21 0.543 0.354 1.163 0.397 2.072 0.041 0.91 0.051 1.2 0.051 3.518s-0.010 2.608-0.051 3.518c-0.043 0.908-0.186 1.529-0.397 2.071-0.227 0.591-0.561 1.096-0.984 1.511l-0.001 0.001c-0.415 0.424-0.919 0.759-1.482 0.976l-0.029 0.010c-0.543 0.21-1.164 0.355-2.073 0.396s-1.2 0.052-3.517 0.052-2.608-0.010-3.518-0.052c-0.909-0.041-1.529-0.186-2.072-0.396-0.592-0.227-1.096-0.562-1.511-0.985l-0.001-0.001c-0.423-0.416-0.758-0.92-0.974-1.483l-0.010-0.029c-0.21-0.542-0.355-1.163-0.397-2.071-0.041-0.911-0.051-1.2-0.051-3.518s0.010-2.608 0.051-3.518c0.041-0.909 0.185-1.529 0.396-2.072 0.227-0.591 0.562-1.096 0.985-1.511l0.001-0.001c0.416-0.423 0.92-0.758 1.483-0.974l0.029-0.010c0.543-0.211 1.163-0.355 2.071-0.397zM15.717 9.006h-0.481v-0.003c-1.591 0.002-1.896 0.013-2.683 0.048-0.832 0.038-1.284 0.176-1.584 0.294-0.398 0.155-0.682 0.339-0.981 0.638-0.276 0.269-0.494 0.596-0.632 0.963l-0.006 0.018c-0.117 0.302-0.256 0.752-0.294 1.584-0.041 0.9-0.049 1.168-0.049 3.447s0.009 2.55 0.049 3.45c0.038 0.832 0.177 1.284 0.294 1.584 0.155 0.399 0.339 0.682 0.638 0.981 0.269 0.276 0.596 0.494 0.963 0.632l0.018 0.006c0.302 0.117 0.752 0.256 1.584 0.294 0.9 0.040 1.17 0.049 3.449 0.049s2.548-0.009 3.448-0.049c0.832-0.038 1.285-0.177 1.584-0.294 0.399-0.154 0.682-0.339 0.981-0.638s0.485-0.582 0.638-0.98c0.117-0.301 0.256-0.752 0.294-1.584 0.040-0.899 0.049-1.17 0.049-3.447s-0.009-2.547-0.049-3.447c-0.038-0.832-0.177-1.284-0.294-1.584-0.144-0.385-0.362-0.712-0.638-0.98l-0.001-0.001c-0.269-0.277-0.596-0.494-0.963-0.632l-0.018-0.006c-0.301-0.117-0.752-0.256-1.584-0.294-0.9-0.040-1.169-0.048-3.448-0.048h-0.284z"></path>
</symbol>
<symbol id="icon-faceb" viewBox="0 0 32 32">
<path fill="#3b5998" style="fill: var(--color3, #3b5998)" d="M0 16c0-8.837 7.163-16 16-16s16 7.163 16 16-7.163 16-16 16-16-7.163-16-16z"></path>
<path fill="#3b5998" style="fill: var(--color3, #3b5998)" d="M4.571 0h22.857c2.525 0 4.571 2.047 4.571 4.571v22.857c0 2.525-2.047 4.571-4.571 4.571h-22.857c-2.525 0-4.571-2.047-4.571-4.571v-22.857c0-2.525 2.047-4.571 4.571-4.571z"></path>
<path fill="#fff" style="fill: var(--color2, #fff)" d="M17.668 25.408v-8.705h2.403l0.318-3h-2.721l0.004-1.501c0-0.783 0.075-1.202 1.198-1.202h1.503v-3h-2.404c-2.886 0-3.902 1.456-3.902 3.902v1.801h-1.799v3h1.799v8.704h3.601z"></path>
</symbol>
<symbol id="icon-viber" viewBox="0 0 32 32">
<path fill="#675da9" style="fill: var(--color4, #675da9)" d="M16 32c8.837 0 16-7.163 16-16s-7.163-16-16-16-16 7.163-16 16 7.163 16 16 16z"></path>
<path fill="#675da9" style="fill: var(--color4, #675da9)" d="M4.571 0h22.857c2.525 0 4.571 2.047 4.571 4.571v22.857c0 2.525-2.047 4.571-4.571 4.571h-22.857c-2.525 0-4.571-2.047-4.571-4.571v-22.857c0-2.525 2.047-4.571 4.571-4.571z"></path>
<path fill="#fff" style="fill: var(--color2, #fff)" d="M24.985 11.977l-0.006-0.023c-0.454-1.85-2.5-3.835-4.379-4.248l-0.020-0.005c-1.377-0.279-2.96-0.439-4.58-0.439s-3.203 0.16-4.733 0.464l0.154-0.026-0.022 0.005c-1.878 0.413-3.924 2.398-4.378 4.248l-0.005 0.023c-0.267 1.17-0.421 2.514-0.421 3.893s0.153 2.723 0.444 4.015l-0.023-0.122 0.005 0.023c0.435 1.771 2.329 3.665 4.138 4.186v2.066c0 0.747 0.902 1.114 1.417 0.574l2.075-2.175c0.45 0.026 0.901 0.040 1.35 0.040 1.53 0 3.060-0.146 4.58-0.439l0.021-0.004c1.879-0.413 3.925-2.398 4.378-4.249l0.006-0.023c0.267-1.17 0.421-2.514 0.421-3.893s-0.153-2.723-0.444-4.015l0.023 0.122zM23.343 19.39c-0.303 1.207-1.856 2.706-3.090 2.984-1.278 0.258-2.747 0.405-4.251 0.405-0.218 0-0.435-0.003-0.652-0.009l0.032 0.001c-0.001-0-0.002-0-0.004-0-0.033 0-0.062 0.014-0.083 0.036l-0 0-3.126 3.236c-0.034 0.036-0.083 0.058-0.136 0.058-0.104 0-0.188-0.084-0.188-0.188 0-0.001 0-0.001 0-0.002v0-3.421c-0-0.057-0.041-0.104-0.094-0.115l-0.001-0h-0.001c-1.234-0.277-2.788-1.777-3.090-2.985-0.241-1.058-0.379-2.272-0.379-3.519s0.138-2.461 0.399-3.629l-0.021 0.11c0.303-1.207 1.856-2.707 3.090-2.985 1.278-0.258 2.748-0.406 4.252-0.406s2.974 0.148 4.395 0.43l-0.143-0.024c1.234 0.278 2.788 1.778 3.090 2.985 0.241 1.058 0.379 2.272 0.379 3.519s-0.138 2.461-0.4 3.629l0.021-0.11z"></path>
<path fill="#fff" style="fill: var(--color2, #fff)" d="M18.685 20.969c-0.19-0.058-0.371-0.098-0.539-0.167-1.74-0.729-3.341-1.668-4.61-3.108-0.722-0.819-1.286-1.744-1.764-2.721-0.226-0.464-0.417-0.946-0.612-1.425-0.177-0.437 0.084-0.888 0.359-1.217 0.259-0.3 0.575-0.542 0.933-0.712l0.017-0.007c0.28-0.136 0.558-0.058 0.762 0.183 0.443 0.518 0.85 1.063 1.179 1.664 0.203 0.37 0.148 0.823-0.219 1.073-0.090 0.061-0.171 0.133-0.254 0.202-0.075 0.057-0.139 0.125-0.19 0.201l-0.002 0.003c-0.048 0.081-0.076 0.179-0.076 0.283 0 0.075 0.015 0.146 0.041 0.211l-0.001-0.004c0.454 1.255 1.216 2.231 2.47 2.757 0.201 0.084 0.402 0.183 0.633 0.155 0.387-0.046 0.512-0.474 0.784-0.697 0.265-0.219 0.603-0.221 0.889-0.039s0.562 0.378 0.837 0.575c0.27 0.194 0.538 0.384 0.787 0.605 0.24 0.212 0.322 0.491 0.187 0.78-0.247 0.528-0.606 0.968-1.125 1.249-0.146 0.080-0.32 0.105-0.485 0.155 0.165-0.050-0.19-0.058 0 0zM16.005 11.007c2.277 0.064 4.146 1.587 4.547 3.857 0.069 0.386 0.092 0.782 0.122 1.174 0.013 0.165-0.080 0.322-0.256 0.324-0.183 0.003-0.265-0.152-0.277-0.316-0.023-0.326-0.039-0.655-0.084-0.978-0.236-1.71-1.587-3.125-3.275-3.429-0.254-0.046-0.515-0.058-0.772-0.085-0.163-0.017-0.375-0.027-0.411-0.23-0.030-0.171 0.112-0.307 0.274-0.316 0.044-0.002 0.088 0 0.132 0 2.277 0.064-0.044 0 0 0z"></path>
<path fill="#fff" style="fill: var(--color2, #fff)" d="M19.464 15.529c-0.004 0.028-0.006 0.096-0.023 0.159-0.060 0.231-0.407 0.26-0.486 0.027-0.018-0.059-0.028-0.126-0.028-0.196 0-0.009 0-0.018 0.001-0.027l-0 0.001c0-0.486-0.105-0.972-0.348-1.395-0.256-0.439-0.624-0.789-1.065-1.014l-0.015-0.007c-0.249-0.122-0.539-0.215-0.843-0.264l-0.018-0.002c-0.13-0.022-0.261-0.035-0.391-0.053-0.158-0.022-0.242-0.123-0.235-0.281 0-0.136 0.11-0.246 0.246-0.246 0.009 0 0.019 0.001 0.028 0.002l-0.001-0c0.523 0.030 1.027 0.144 1.491 0.392 0.944 0.505 1.484 1.3 1.642 2.363 0.006 0.048 0.018 0.096 0.022 0.144 0.009 0.119 0.015 0.238 0.024 0.396-0.004 0.028-0.009-0.157 0 0z"></path>
<path fill="#fff" style="fill: var(--color2, #fff)" d="M18.048 15.473c-0.19 0.004-0.293-0.102-0.312-0.279-0.014-0.123-0.025-0.247-0.054-0.366-0.054-0.245-0.189-0.451-0.374-0.596l-0.002-0.002c-0.088-0.065-0.191-0.116-0.301-0.148l-0.007-0.002c-0.14-0.040-0.284-0.029-0.424-0.064-0.151-0.037-0.235-0.161-0.21-0.304 0.025-0.128 0.136-0.223 0.269-0.223 0.007 0 0.013 0 0.019 0.001l-0.001-0c0.882 0.064 1.513 0.524 1.603 1.573 0.006 0.073 0.014 0.152-0.002 0.222-0.027 0.121-0.117 0.182-0.204 0.187 0.087-0.005-0.19 0.004 0 0z"></path>
</symbol>
<symbol id="icon-chevron_down" viewBox="0 0 31 32">
<path d="M15.36 20.753l7.693-7.693-1.809-1.811-5.884 5.888-5.883-5.888-1.81 1.81 7.693 7.694z"></path>
</symbol>

<symbol id="icon-Arrow" viewBox="0 0 22 32">
<path stroke-linejoin="bevel" stroke-linecap="square" stroke-miterlimit="4" stroke-width="1.1034" d="M11.096 0.551v30.897M11.096 31.448l9.931-9.931M11.096 31.448l-9.931-9.931"></path>
</symbol>

  </defs>
</svg>
